<svg xmlns="http://www.w3.org/2000/svg" id="delete" width="18" height="18" viewBox="0 0 18 18">
    <defs>
        <style>
            .cls-2{fill:#000}
        </style>
    </defs>
    <g id="Group_14537"/>
    <g id="bin" transform="translate(3.443 2.25)">
        <path id="Path_22029" d="M222.729 154.7c-.183 0-.331.105-.331.235v4.448c0 .13.148.235.331.235s.331-.105.331-.235v-4.448c0-.127-.148-.235-.331-.235zm0 0" class="cls-2" transform="translate(-215.039 -148.764)"/>
        <path id="Path_22030" d="M104.729 154.7c-.183 0-.331.105-.331.235v4.448c0 .13.148.235.331.235s.331-.105.331-.235v-4.448c0-.127-.148-.235-.331-.235zm0 0" class="cls-2" transform="translate(-100.944 -148.764)"/>
        <path id="Path_22031" d="M.937 4.205v7.333a1.826 1.826 0 0 0 .485 1.262 1.63 1.63 0 0 0 1.182.511h6.261a1.629 1.629 0 0 0 1.182-.511 1.826 1.826 0 0 0 .485-1.259V4.205a1.264 1.264 0 0 0-.324-2.486H8.514v-.413A1.3 1.3 0 0 0 7.2 0H4.266a1.3 1.3 0 0 0-1.31 1.307v.414H1.261a1.264 1.264 0 0 0-.324 2.484zm7.928 8.442H2.6a1.048 1.048 0 0 1-1-1.109v-7.3h8.271v7.3a1.048 1.048 0 0 1-1.006 1.109zM3.617 1.306a.638.638 0 0 1 .649-.645H7.2a.638.638 0 0 1 .649.645v.414H3.617zM1.261 2.381h8.948a.6.6 0 1 1 0 1.191H1.261a.6.6 0 1 1 0-1.191zm0 0" class="cls-2" transform="translate(0.003 0.001)"/>
        <path id="Path_22032" d="M163.729 154.7c-.183 0-.331.105-.331.235v4.448c0 .13.148.235.331.235s.331-.105.331-.235v-4.448c0-.127-.148-.235-.331-.235zm0 0" class="cls-2" transform="translate(-157.991 -148.764)"/>
    </g>
</svg>
