<?xml version="1.0" encoding="utf-8"?>
<!-- Generator: Adobe Illustrator 26.0.0, SVG Export Plug-In . SVG Version: 6.00 Build 0)  -->
<svg version="1.1" id="Layer_1" xmlns="http://www.w3.org/2000/svg" xmlns:xlink="http://www.w3.org/1999/xlink" x="0px" y="0px"
	 viewBox="0 0 13.1 13.1" style="enable-background:new 0 0 13.1 13.1;" xml:space="preserve">
<style type="text/css">
	.st0{fill:#ADADAF;}
</style>
<g id="log-out" transform="translate(0 13.094) rotate(-90)">
	<path id="Path_19632" class="st0" d="M4.5,0H1.8C0.8,0,0,0.8,0,1.8v9.4c0,1,0.8,1.8,1.8,1.8h2.7c0.3,0,0.5-0.2,0.5-0.5
		s-0.2-0.5-0.5-0.5H1.8c-0.5,0-0.8-0.4-0.8-0.8V1.8C1,1.4,1.4,1,1.8,1h2.7C4.8,1,5,0.8,5,0.5S4.8,0,4.5,0z"/>
	<path id="Path_19634" class="st0" d="M12.6,6H4.5C4.3,6,4,6.3,4,6.5s0.2,0.5,0.5,0.5h8.1c0.3,0,0.5-0.2,0.5-0.5S12.9,6,12.6,6z"/>
	<path id="Path_19633" class="st0" d="M5.1,10.4c0.3,0,0.5-0.2,0.5-0.5c0-0.1-0.1-0.3-0.2-0.4l-3-3l3-3c0.2-0.2,0.2-0.5,0-0.7
		s-0.5-0.2-0.7,0L1.4,6.2c-0.2,0.2-0.2,0.5,0,0.7c0,0,0,0,0,0l3.4,3.4C4.8,10.4,4.9,10.4,5.1,10.4z"/>
</g>
</svg>
