<svg xmlns="http://www.w3.org/2000/svg" width="11.425" height="11.379" viewBox="0 0 11.425 11.379">
    <defs>
        <style>
            .cls-1{fill:#000}
        </style>
    </defs>
    <g id="edit_name" transform="translate(0 0)">
        <path id="Path_11918" d="M112.659.554a1.879 1.879 0 0 0-2.658 0l-6.467 6.466a.5.5 0 0 0-.118.192l-.982 2.946a.491.491 0 0 0 .465.646.5.5 0 0 0 .155-.025L106 9.8a.491.491 0 0 0 .192-.119l6.467-6.467a1.879 1.879 0 0 0 0-2.66zm-.694 1.964L105.582 8.9l-1.907.637.635-1.9 6.385-6.382a.9.9 0 1 1 1.27 1.268z" class="cls-1" transform="translate(-102.409 -0.004)"/>
        <path id="Path_43471" d="M5.1.458H-.121A.579.579 0 0 1-.7-.121.579.579 0 0 1-.121-.7H5.1a.579.579 0 0 1 .579.579.579.579 0 0 1-.579.579z" class="cls-1" transform="translate(5.747 10.921)"/>
    </g>
</svg>
