<?xml version="1.0" encoding="utf-8"?>
<!-- Generator: Adobe Illustrator 26.0.0, SVG Export Plug-In . SVG Version: 6.00 Build 0)  -->
<svg version="1.1" id="Layer_1" xmlns="http://www.w3.org/2000/svg" xmlns:xlink="http://www.w3.org/1999/xlink" x="0px" y="0px" width="190.811" height="38.811"
	 viewBox="0 0 190.8 38.8" style="enable-background:new 0 0 190.8 38.8;" xml:space="preserve">
<style type="text/css">
	.st0{fill:#23a7ae}
	.st1{clip-path:url(#SVGID_00000139974301875270117670000008454102161590921908_);}
	.st2{clip-path:url(#SVGID_00000132769419902195427880000015701859407673508761_);}
</style>
<g id="logo" transform="translate(-161.189 -9.641)">
	<g id="Group_77592" transform="translate(208 19.641)">
		<path id="Path_43915" class="st0" d="M-46,1.9v3h4.7v12.5h3.5V4.8h4.7v-3H-46z"/>
		<g id="Group_77591">
			<g>
				<defs>
					<rect id="SVGID_1_" x="-46" y="0" width="144" height="17.6"/>
				</defs>
				<clipPath id="SVGID_00000096750151152573539120000007149614881070809240_">
					<use xlink:href="#SVGID_1_"  style="overflow:visible;"/>
				</clipPath>
				<g id="Group_77590" style="clip-path:url(#SVGID_00000096750151152573539120000007149614881070809240_);">
					<path id="Path_43916" class="st0" d="M-22.4,11.4c0,0.9-0.1,1.7-0.4,2.5c-0.2,0.7-0.6,1.4-1.2,2c-0.5,0.5-1.1,1-1.8,1.3
						c-1.5,0.6-3.2,0.6-4.7,0c-0.7-0.3-1.3-0.7-1.8-1.3c-0.5-0.6-0.9-1.2-1.2-2c-0.3-0.8-0.4-1.7-0.4-2.5c0-0.9,0.1-1.7,0.4-2.5
						c0.3-0.7,0.7-1.4,1.2-1.9c0.5-0.5,1.1-1,1.8-1.3c0.7-0.3,1.5-0.5,2.3-0.4c0.8,0,1.6,0.1,2.3,0.4C-25.2,6-24.5,6.4-24,7
						c0.5,0.6,0.9,1.2,1.2,1.9C-22.5,9.7-22.4,10.6-22.4,11.4 M-25.8,11.4c0-0.9-0.2-1.7-0.6-2.4c-0.4-0.6-1.1-0.9-1.8-0.9
						c-0.7,0-1.4,0.3-1.8,0.9c-0.5,0.7-0.7,1.6-0.6,2.4c0,0.9,0.2,1.7,0.6,2.4c0.4,0.6,1.1,0.9,1.8,0.9c0.7,0,1.4-0.3,1.8-0.9
						C-26,13.1-25.8,12.3-25.8,11.4"/>
					<path id="Path_43917" class="st0" d="M-10.4,16.9c-0.7,0.2-1.5,0.3-2.2,0.5c-0.9,0.1-1.9,0.2-2.8,0.2c-0.8,0-1.7-0.1-2.5-0.4
						c-0.6-0.2-1.2-0.6-1.6-1.1c-0.4-0.5-0.7-1.1-0.8-1.7c-0.2-0.7-0.3-1.5-0.2-2.2V5.6h3.3v6.1c-0.1,0.8,0.1,1.6,0.4,2.3
						c0.4,0.5,1,0.8,1.6,0.7c0.5,0,1,0,1.5-0.1V5.6h3.3L-10.4,16.9z"/>
					<path id="Path_43918" class="st0" d="M-0.7,8.5C-1,8.5-1.4,8.4-1.8,8.3c-0.4-0.1-0.9-0.1-1.3-0.1c-0.3,0-0.5,0-0.7,0.1
						c-0.2,0-0.4,0.1-0.7,0.1v9h-3.3V6.2C-7.1,6-6.4,5.8-5.7,5.6C-4.8,5.4-3.9,5.3-3,5.3c0.2,0,0.4,0,0.6,0s0.5,0.1,0.8,0.1
						s0.5,0.1,0.8,0.1c0.2,0,0.4,0.1,0.6,0.2L-0.7,8.5z"/>
					<path id="Path_43919" class="st0" d="M4.7,2.2c0,0.5-0.2,1.1-0.6,1.4c-0.8,0.7-2,0.7-2.8,0C0.9,3.3,0.7,2.7,0.7,2.2
						c0-0.5,0.2-1.1,0.6-1.4c0.8-0.7,2-0.7,2.8,0C4.5,1.1,4.7,1.6,4.7,2.2 M4.4,17.3H1.1V5.6h3.3V17.3z"/>
					<path id="Path_43920" class="st0" d="M10.3,14.9c0.4,0,0.9,0,1.3-0.2c0.3-0.1,0.4-0.4,0.4-0.7c0-0.3-0.2-0.6-0.5-0.7
						c-0.5-0.3-1-0.5-1.5-0.7c-0.5-0.2-1-0.4-1.4-0.6c-0.4-0.2-0.8-0.4-1.1-0.7c-0.3-0.3-0.5-0.6-0.7-1c-0.2-0.5-0.3-1-0.2-1.5
						c0-1,0.4-2,1.2-2.6c1-0.7,2.2-1,3.4-1c0.7,0,1.4,0.1,2.1,0.2c0.5,0.1,1.1,0.2,1.6,0.4l-0.6,2.6c-0.4-0.1-0.8-0.3-1.3-0.4
						c-0.5-0.1-1-0.2-1.5-0.2c-1,0-1.6,0.3-1.6,0.9c0,0.1,0,0.2,0.1,0.4c0.1,0.1,0.2,0.2,0.3,0.3c0.2,0.1,0.4,0.2,0.5,0.3
						c0.2,0.1,0.5,0.2,0.9,0.4c0.6,0.2,1.2,0.5,1.8,0.8c0.4,0.2,0.8,0.5,1.1,0.9c0.3,0.3,0.5,0.6,0.6,1c0.1,0.4,0.2,0.9,0.2,1.3
						c0.1,1-0.4,2-1.3,2.6c-1.1,0.7-2.4,1-3.7,0.9c-0.9,0-1.7-0.1-2.6-0.3c-0.5-0.1-1-0.3-1.4-0.4l0.6-2.7c0.6,0.2,1.2,0.4,1.7,0.5
						C9.1,14.9,9.7,14.9,10.3,14.9"/>
					<path id="Path_43921" class="st0" d="M17.1,2.7l3.3-0.5v3.5h4v2.8h-4v4.1c0,0.6,0.1,1.2,0.4,1.7c0.3,0.5,0.9,0.7,1.5,0.6
						c0.4,0,0.7,0,1.1-0.1c0.4-0.1,0.7-0.2,1-0.3l0.5,2.6c-0.4,0.2-0.9,0.3-1.3,0.4c-0.6,0.1-1.2,0.2-1.8,0.2
						c-0.8,0-1.5-0.1-2.3-0.4c-0.6-0.2-1-0.6-1.4-1c-0.4-0.5-0.6-1-0.7-1.6c-0.1-0.7-0.2-1.4-0.2-2.1L17.1,2.7z"/>
					<path id="Path_43922" class="st0" d="M30.2,15.6c0,0.6-0.2,1.1-0.6,1.5c-0.8,0.7-2,0.7-2.9,0c-0.4-0.4-0.7-0.9-0.6-1.5
						c0-0.6,0.2-1.1,0.6-1.5c0.8-0.7,2-0.7,2.9,0C30,14.4,30.3,15,30.2,15.6"/>
					<path id="Path_43923" class="st0" d="M41.5,1.9h3.5v15.5h-3.5v-6.6h-5.9v6.6h-3.5V1.9h3.5v5.9h5.9V1.9z"/>
					<path id="Path_43924" class="st0" d="M47.2,11.5c0-0.9,0.1-1.9,0.5-2.7c0.3-0.7,0.7-1.4,1.3-2c0.5-0.5,1.1-0.9,1.8-1.2
						c0.7-0.3,1.4-0.4,2.1-0.4c1.5-0.1,2.9,0.5,4,1.5c1,1.3,1.6,2.9,1.5,4.5c0,0.2,0,0.4,0,0.6s0,0.4,0,0.6h-7.5
						c0.1,0.7,0.4,1.3,1,1.6c0.7,0.4,1.5,0.6,2.3,0.6c0.6,0,1.2-0.1,1.8-0.2c0.5-0.1,1-0.2,1.4-0.4l0.4,2.7
						c-0.2,0.1-0.5,0.2-0.7,0.3c-0.3,0.1-0.7,0.2-1,0.2c-0.4,0.1-0.8,0.1-1.2,0.2c-0.4,0-0.8,0.1-1.2,0.1c-0.9,0-1.9-0.1-2.8-0.5
						c-0.7-0.3-1.4-0.7-1.9-1.3c-0.5-0.6-0.9-1.2-1.1-1.9C47.3,13.2,47.2,12.4,47.2,11.5 M55,10.3c0-0.3-0.1-0.6-0.1-0.8
						c-0.1-0.3-0.2-0.5-0.4-0.7c-0.2-0.2-0.4-0.4-0.6-0.5c-0.3-0.1-0.6-0.2-1-0.2c-0.3,0-0.7,0.1-1,0.2c-0.3,0.1-0.5,0.3-0.7,0.5
						c-0.2,0.2-0.3,0.5-0.4,0.7c-0.1,0.3-0.2,0.6-0.2,0.8L55,10.3z"/>
					<path id="Path_43925" class="st0" d="M64.4,5.3c0.8,0,1.7,0.1,2.5,0.3c0.6,0.2,1.1,0.5,1.6,1c0.4,0.4,0.7,1,0.8,1.5
						c0.2,0.6,0.3,1.3,0.2,2V17c-0.5,0.1-1.1,0.2-2,0.4c-1,0.2-2.1,0.2-3.1,0.2c-0.7,0-1.4-0.1-2.1-0.2c-0.6-0.1-1.1-0.3-1.6-0.7
						c-0.4-0.3-0.8-0.7-1-1.2c-0.3-0.6-0.4-1.2-0.4-1.8c0-0.6,0.1-1.2,0.4-1.7c0.3-0.5,0.6-0.9,1.1-1.1c0.5-0.3,1-0.5,1.6-0.6
						c0.6-0.1,1.2-0.2,1.9-0.2c0.4,0,0.8,0,1.1,0.1c0.3,0,0.5,0.1,0.8,0.1V9.9c0-0.5-0.2-1-0.5-1.4C65.3,8.2,64.7,8,64.1,8
						c-0.6,0-1.1,0-1.7,0.1c-0.5,0.1-1,0.2-1.4,0.3l-0.4-2.7c0.2-0.1,0.4-0.1,0.7-0.2s0.6-0.1,0.9-0.2c0.3-0.1,0.7-0.1,1.1-0.1
						C63.7,5.3,64,5.3,64.4,5.3 M64.7,15c0.3,0,0.6,0,0.9,0c0.2,0,0.5,0,0.7-0.1v-2.5c-0.2,0-0.4-0.1-0.6-0.1c-0.2,0-0.5,0-0.7,0
						c-0.3,0-0.6,0-0.9,0.1c-0.3,0-0.5,0.1-0.7,0.2c-0.2,0.1-0.4,0.2-0.5,0.4c-0.1,0.2-0.2,0.4-0.2,0.7c0,0.4,0.2,0.9,0.5,1.1
						C63.7,14.9,64.2,15,64.7,15"/>
					<path id="Path_43926" class="st0" d="M76.7,17.6c-0.8,0-1.6-0.1-2.4-0.3c-0.5-0.2-1-0.4-1.4-0.8c-0.4-0.4-0.6-0.8-0.7-1.3
						C72.1,14.6,72,14,72,13.5V0.5L75.3,0v12.8c0,0.3,0,0.5,0.1,0.8c0,0.2,0.1,0.4,0.3,0.6c0.1,0.2,0.3,0.3,0.5,0.4
						c0.3,0.1,0.6,0.2,1,0.2L76.7,17.6z"/>
					<path id="Path_43927" class="st0" d="M78.4,2.7l3.3-0.5v3.5h4v2.8h-4v4.1c0,0.6,0.1,1.2,0.4,1.7c0.3,0.5,0.9,0.7,1.5,0.6
						c0.4,0,0.7,0,1.1-0.1c0.4-0.1,0.7-0.2,1-0.3l0.5,2.6c-0.4,0.2-0.9,0.3-1.3,0.4c-0.6,0.1-1.2,0.2-1.8,0.2
						c-0.8,0-1.5-0.1-2.3-0.4c-0.6-0.2-1-0.6-1.4-1c-0.4-0.5-0.6-1-0.7-1.6c-0.1-0.7-0.2-1.4-0.2-2.1L78.4,2.7z"/>
					<path id="Path_43928" class="st0" d="M87.9,17.3V0.5L91.2,0v5.6c0.3-0.1,0.6-0.2,0.9-0.2c0.3-0.1,0.7-0.1,1-0.1
						c0.8,0,1.6,0.1,2.4,0.4C96,5.9,96.6,6.3,97,6.8c0.4,0.5,0.7,1.1,0.8,1.7C97.9,9.2,98,10,98,10.7v6.6h-3.3v-6.2
						c0.1-0.8-0.1-1.6-0.4-2.3c-0.4-0.5-0.9-0.7-1.5-0.7c-0.3,0-0.6,0-0.8,0.1c-0.3,0.1-0.5,0.1-0.7,0.2v8.9H87.9z"/>
				</g>
			</g>
		</g>
	</g>
	<g id="Group_77589" transform="translate(161.189 9.641)">
		<g>
			<defs>
				<rect id="SVGID_00000120541385082374450730000004696353143697389707_" x="152" width="38.8" height="38.8"/>
			</defs>
			<clipPath id="SVGID_00000129167623763199988060000007981784829797642399_">
				<use xlink:href="#SVGID_00000120541385082374450730000004696353143697389707_"  style="overflow:visible;"/>
			</clipPath>
			<g id="Group_77588" style="clip-path:url(#SVGID_00000129167623763199988060000007981784829797642399_);">
				<path id="Path_43914" class="st0" d="M171.4,0C160.7,0,152,8.7,152,19.4s8.7,19.4,19.4,19.4s19.4-8.7,19.4-19.4c0,0,0,0,0,0
					C190.8,8.7,182.1,0,171.4,0 M172.3,37.1l8.4-8.4l3.1-3.1c3.4-3.4,3.4-8.9,0-12.3s-8.9-3.4-12.3,0l0,0c-3.4-3.4-8.9-3.4-12.3,0
					c-3.4,3.4-3.4,8.9,0,12.3l3.1,3.1l8.4,8.4c-9.8-0.5-17.4-8.8-16.9-18.6s8.8-17.4,18.6-16.9c9.8,0.5,17.4,8.8,16.9,18.6
					C188.7,29.4,181.4,36.7,172.3,37.1 M176.5,27.9c0.2-0.5,0.5-0.9,0.7-1.5c0.6-1,1.1-2.1,1.5-3.1h5.5c-0.3,0.6-0.8,1.2-1.3,1.7
					l-2.9,2.9L176.5,27.9z M179.1,28.9l-6,5.9l2.9-5.9L179.1,28.9z M179.2,22.3c0.5-1.5,0.7-3,0.4-4.6h5.4c0.4,1.5,0.3,3.1-0.3,4.6
					H179.2z M179.3,16.7c-0.7-2.4-2.9-4-5.3-4c3.8-2,8.4-0.5,10.4,3.3c0.1,0.2,0.2,0.5,0.3,0.7L179.3,16.7z M178.2,16.7h-5.8v-2.8
					C174,13.6,177,13.6,178.2,16.7 M178.5,17.7c0.3,1.5,0.1,3.1-0.5,4.6h-5.6v-4.6L178.5,17.7z M177.7,23.3
					c-0.4,0.9-0.9,1.8-1.3,2.6c-0.4,0.7-0.7,1.3-1,1.9h-3v-4.6L177.7,23.3z M174.9,28.9l-2.5,5v-5L174.9,28.9z"/>
			</g>
		</g>
	</g>
</g>
</svg>
