<svg xmlns="http://www.w3.org/2000/svg" width="24" height="24" viewBox="0 0 24 24">
    <g>
        <path fill="#fff" d="M-3413.558-1036.829l-.487-.5a.975.975 0 0 1-.075-.07l-4.2-4.307a.917.917 0 0 1-.056-1.271l.591-.607a.863.863 0 0 1 1.239.056l3.6 3.688 8.211-8.4a.964.964 0 0 1 1.351-.185l.583.6a1.024 1.024 0 0 1-.184 1.385l-9.214 9.422a1.211 1.211 0 0 1-.84.388.7.7 0 0 1-.519-.199z" transform="translate(-276 -156) translate(3698.611 1210.626)"/>
        <path fill="none" d="M0 0H24V24H0z" transform="translate(-276 -156) translate(276 156)"/>
    </g>
</svg>
