<svg xmlns="http://www.w3.org/2000/svg" width="15.407" height="18.302" viewBox="0 0 15.407 18.302">
    <path fill="#fff" d="M9.687 18.3H2.86A2.863 2.863 0 0 1 0 15.442V5.755A2.863 2.863 0 0 1 2.86 2.9h6.827a2.863 2.863 0 0 1 2.86 2.86v9.687a2.863 2.863 0 0 1-2.86 2.853zM2.86 4.325a1.432 1.432 0 0 0-1.43 1.43v9.687a1.432 1.432 0 0 0 1.43 1.43h6.827a1.432 1.432 0 0 0 1.43-1.43V5.755a1.432 1.432 0 0 0-1.43-1.43zm12.547 9.33V2.86A2.863 2.863 0 0 0 12.547 0H4.611a.715.715 0 0 0 0 1.43h7.936a1.432 1.432 0 0 1 1.43 1.43v10.8a.715.715 0 0 0 1.43 0zm0 0"/>
</svg>
