<svg xmlns="http://www.w3.org/2000/svg" width="190.811" height="38.811" viewBox="0 0 190.811 38.811">
    <defs>
        <clipPath id="clip-path">
            <path id="Rectangle_10577" data-name="Rectangle 10577" class="cls-1" d="M0 0h38.811v38.811H0z"/>
        </clipPath>
        <clipPath id="clip-path-2">
            <path id="Rectangle_10578" data-name="Rectangle 10578" class="cls-1" d="M0 0h144v17.643H0z"/>
        </clipPath>
        <style>
            .cls-1{fill:none}.cls-3{fill:#fff}
        </style>
    </defs>
    <g id="logo" transform="translate(-161.189 -9.641)">
        <g id="Group_77589" data-name="Group 77589" transform="translate(161.189 9.641)">
            <g id="Group_77588" data-name="Group 77588" style="clip-path:url(#clip-path)">
                <path id="Path_43914" data-name="Path 43914" class="cls-3" d="M19.405 0a19.406 19.406 0 1 0 19.406 19.405A19.427 19.427 0 0 0 19.405 0m.858 37.145 8.363-8.363 3.074-3.074a8.693 8.693 0 0 0-12.294-12.294 8.694 8.694 0 1 0-12.3 12.294l3.074 3.074 8.363 8.363a17.762 17.762 0 1 1 1.715 0m4.26-9.245c.216-.452.474-.942.743-1.451a34.4 34.4 0 0 0 1.514-3.123h5.465a7.636 7.636 0 0 1-1.259 1.662L28.069 27.9zm2.534 1.017L21.1 34.865l2.94-5.947zm.1-6.607a9.254 9.254 0 0 0 .433-4.574h5.425a7.726 7.726 0 0 1-.29 4.574zm.175-5.591A5.46 5.46 0 0 0 22 12.757a7.675 7.675 0 0 1 10.683 3.963zm-1.079 0h-5.826V13.9c1.54-.264 4.6-.338 5.824 2.825m.3 1.017a8.465 8.465 0 0 1-.475 4.574h-5.649v-4.579zm-.876 5.59c-.4.935-.873 1.825-1.308 2.648-.361.685-.7 1.332-.961 1.926h-2.979v-4.579zm-2.758 5.591-2.49 5.035v-5.04z"/>
            </g>
        </g>
        <g id="Group_77592" data-name="Group 77592" transform="translate(208 19.641)">
            <path id="Path_43915" data-name="Path 43915" class="cls-3" d="M0 2.891v2.97h4.668v12.506h3.484V5.861h4.668v-2.97z" transform="translate(0 -1.037)"/>
            <g id="Group_77591" data-name="Group 77591">
                <g id="Group_77590" data-name="Group 77590" style="clip-path:url(#clip-path-2)">
                    <path id="Path_43916" data-name="Path 43916" class="cls-3" d="M30.317 14.384a7.621 7.621 0 0 1-.4 2.535 5.5 5.5 0 0 1-1.161 1.965 5.232 5.232 0 0 1-1.821 1.262 6.5 6.5 0 0 1-4.734 0 5.223 5.223 0 0 1-1.82-1.262 5.774 5.774 0 0 1-1.181-1.965 7.29 7.29 0 0 1-.425-2.535 7 7 0 0 1 .437-2.523 5.7 5.7 0 0 1 1.206-1.943 5.415 5.415 0 0 1 1.831-1.251 5.894 5.894 0 0 1 2.311-.446 5.962 5.962 0 0 1 2.334.446 5.306 5.306 0 0 1 1.82 1.251 5.678 5.678 0 0 1 1.184 1.943 7.182 7.182 0 0 1 .424 2.523m-3.394 0a4.188 4.188 0 0 0-.614-2.423 2.008 2.008 0 0 0-1.753-.882 2.038 2.038 0 0 0-1.765.882 4.133 4.133 0 0 0-.625 2.423 4.242 4.242 0 0 0 .625 2.446 2.023 2.023 0 0 0 1.765.9 1.993 1.993 0 0 0 1.753-.9 4.3 4.3 0 0 0 .614-2.446" transform="translate(-6.734 -2.949)"/>
                    <path id="Path_43917" data-name="Path 43917" class="cls-3" d="M49.877 20.052a18.545 18.545 0 0 1-2.189.458 18.029 18.029 0 0 1-2.814.212 6.691 6.691 0 0 1-2.49-.4 3.772 3.772 0 0 1-1.574-1.128 4.392 4.392 0 0 1-.827-1.731 9.288 9.288 0 0 1-.246-2.21V8.707h3.327v6.141a4.769 4.769 0 0 0 .424 2.323 1.687 1.687 0 0 0 1.586.714 11.843 11.843 0 0 0 1.473-.111V8.707h3.327z" transform="translate(-14.256 -3.124)"/>
                    <path id="Path_43918" data-name="Path 43918" class="cls-3" d="M66.633 11.517q-.447-.112-1.05-.234a6.465 6.465 0 0 0-1.295-.123 6.044 6.044 0 0 0-.749.056 4.4 4.4 0 0 0-.659.122v8.978h-3.326V9.2a19.836 19.836 0 0 1 2.11-.592 12.134 12.134 0 0 1 2.714-.28c.179 0 .394.012.648.033s.506.053.759.09.506.082.759.134a3.593 3.593 0 0 1 .647.19z" transform="translate(-21.365 -2.986)"/>
                    <path id="Path_43919" data-name="Path 43919" class="cls-3" d="M76.834 2.313a1.826 1.826 0 0 1-.593 1.44 2.116 2.116 0 0 1-2.791 0 1.824 1.824 0 0 1-.593-1.44 1.824 1.824 0 0 1 .593-1.44 2.116 2.116 0 0 1 2.791 0 1.826 1.826 0 0 1 .593 1.44m-.313 15.142h-3.328V5.708h3.328z" transform="translate(-26.138 -.125)"/>
                    <path id="Path_43920" data-name="Path 43920" class="cls-3" d="M85.559 17.889a3.312 3.312 0 0 0 1.3-.179.69.69 0 0 0 .38-.692.849.849 0 0 0-.492-.7 9.263 9.263 0 0 0-1.5-.681 15.2 15.2 0 0 1-1.418-.6 4.156 4.156 0 0 1-1.082-.748 3.021 3.021 0 0 1-.693-1.039 3.848 3.848 0 0 1-.246-1.451 3.138 3.138 0 0 1 1.228-2.619 5.346 5.346 0 0 1 3.372-.961 10.836 10.836 0 0 1 2.055.19 9.561 9.561 0 0 1 1.563.414l-.581 2.59a12.145 12.145 0 0 0-1.261-.357 6.846 6.846 0 0 0-1.53-.156q-1.563 0-1.563.871a.91.91 0 0 0 .067.357.772.772 0 0 0 .268.3 3.721 3.721 0 0 0 .548.314q.345.17.882.371a13.743 13.743 0 0 1 1.809.8 4.331 4.331 0 0 1 1.127.851 2.622 2.622 0 0 1 .581 1.014 4.5 4.5 0 0 1 .167 1.292 2.979 2.979 0 0 1-1.307 2.63 6.511 6.511 0 0 1-3.7.891 10.616 10.616 0 0 1-2.6-.268 10.466 10.466 0 0 1-1.44-.446l.558-2.7a10.922 10.922 0 0 0 1.749.523 8.487 8.487 0 0 0 1.764.19" transform="translate(-29.236 -2.949)"/>
                    <path id="Path_43921" data-name="Path 43921" class="cls-3" d="m98.42 3.844 3.327-.536V6.77h4v2.77h-4v4.131a3.288 3.288 0 0 0 .368 1.675 1.583 1.583 0 0 0 1.486.625 6.393 6.393 0 0 0 1.106-.1 5.737 5.737 0 0 0 1.039-.279l.469 2.59a9.451 9.451 0 0 1-1.34.425 7.8 7.8 0 0 1-1.809.179 5.953 5.953 0 0 1-2.255-.369 3.537 3.537 0 0 1-1.43-1.027 3.828 3.828 0 0 1-.748-1.6 9.4 9.4 0 0 1-.212-2.076z" transform="translate(-35.308 -1.187)"/>
                    <path id="Path_43922" data-name="Path 43922" class="cls-3" d="M116.538 23.126a1.869 1.869 0 0 1-.636 1.529 2.24 2.24 0 0 1-2.881 0 1.868 1.868 0 0 1-.637-1.529 1.868 1.868 0 0 1 .637-1.53 2.24 2.24 0 0 1 2.881 0 1.87 1.87 0 0 1 .636 1.53" transform="translate(-40.318 -7.559)"/>
                    <path id="Path_43923" data-name="Path 43923" class="cls-3" d="M131.158 2.891h3.485v15.476h-3.485V11.8h-5.851v6.566h-3.484V2.891h3.484v5.918h5.851z" transform="translate(-43.704 -1.037)"/>
                    <path id="Path_43924" data-name="Path 43924" class="cls-3" d="M145.3 14.495a7.182 7.182 0 0 1 .48-2.736 5.861 5.861 0 0 1 1.258-1.959 5.247 5.247 0 0 1 1.8-1.184 5.627 5.627 0 0 1 2.088-.4 5.192 5.192 0 0 1 3.953 1.529 6.305 6.305 0 0 1 1.451 4.5c0 .193-.008.405-.022.635s-.029.436-.044.614h-7.549a2.209 2.209 0 0 0 .961 1.63 3.855 3.855 0 0 0 2.278.6 9.626 9.626 0 0 0 1.8-.167 6.753 6.753 0 0 0 1.44-.413l.446 2.7a4.6 4.6 0 0 1-.714.268 9.489 9.489 0 0 1-.993.235q-.547.1-1.173.167a11.847 11.847 0 0 1-1.25.067 7.409 7.409 0 0 1-2.758-.469 5.363 5.363 0 0 1-1.943-1.284 5.089 5.089 0 0 1-1.139-1.932 7.647 7.647 0 0 1-.369-2.411m7.816-1.274a3.46 3.46 0 0 0-.145-.827 2.082 2.082 0 0 0-.38-.714 2.031 2.031 0 0 0-.648-.514 2.111 2.111 0 0 0-.972-.2 2.235 2.235 0 0 0-.96.19 1.992 1.992 0 0 0-.67.5 2.259 2.259 0 0 0-.413.726 4.729 4.729 0 0 0-.212.837z" transform="translate(-52.125 -2.949)"/>
                    <path id="Path_43925" data-name="Path 43925" class="cls-3" d="M169.419 8.22a7.711 7.711 0 0 1 2.457.335 3.824 3.824 0 0 1 1.575.961 3.55 3.55 0 0 1 .837 1.518 7.5 7.5 0 0 1 .246 1.988v6.923q-.716.157-1.988.369a19.067 19.067 0 0 1-3.082.212 9.759 9.759 0 0 1-2.065-.2 4.473 4.473 0 0 1-1.6-.659 3.014 3.014 0 0 1-1.028-1.2 4.12 4.12 0 0 1-.358-1.809 3.436 3.436 0 0 1 .414-1.742 3.2 3.2 0 0 1 1.106-1.139 5.008 5.008 0 0 1 1.586-.614 8.911 8.911 0 0 1 1.854-.19 10.532 10.532 0 0 1 1.15.056 5.1 5.1 0 0 1 .815.146v-.313a1.843 1.843 0 0 0-.514-1.363 2.486 2.486 0 0 0-1.787-.514 11.433 11.433 0 0 0-1.675.122 7.2 7.2 0 0 0-1.429.347l-.425-2.68q.29-.089.727-.19t.949-.179q.514-.078 1.083-.134t1.15-.056m.268 9.737c.327 0 .641-.007.938-.022a6.538 6.538 0 0 0 .714-.067v-2.519a6.871 6.871 0 0 0-.6-.089 6.936 6.936 0 0 0-.737-.045 6.577 6.577 0 0 0-.881.056 2.315 2.315 0 0 0-.727.212 1.246 1.246 0 0 0-.491.424 1.183 1.183 0 0 0-.179.67 1.142 1.142 0 0 0 .525 1.084 2.9 2.9 0 0 0 1.44.3" transform="translate(-58.984 -2.949)"/>
                    <path id="Path_43926" data-name="Path 43926" class="cls-3" d="M188.714 17.554a8.332 8.332 0 0 1-2.357-.312 3.5 3.5 0 0 1-1.429-.815 2.7 2.7 0 0 1-.714-1.274 6.871 6.871 0 0 1-.19-1.686V.536L187.351 0v12.8a4.424 4.424 0 0 0 .067.8 1.392 1.392 0 0 0 .257.6 1.359 1.359 0 0 0 .548.4 2.99 2.99 0 0 0 .96.2z" transform="translate(-66.018)"/>
                    <path id="Path_43927" data-name="Path 43927" class="cls-3" d="m193.984 3.844 3.328-.536V6.77h4v2.77h-4v4.131a3.287 3.287 0 0 0 .369 1.675 1.58 1.58 0 0 0 1.484.625 6.382 6.382 0 0 0 1.106-.1 5.723 5.723 0 0 0 1.039-.279l.469 2.59a9.451 9.451 0 0 1-1.34.425 7.792 7.792 0 0 1-1.808.179 5.954 5.954 0 0 1-2.256-.369 3.535 3.535 0 0 1-1.429-1.027 3.829 3.829 0 0 1-.748-1.6 9.4 9.4 0 0 1-.212-2.076z" transform="translate(-69.592 -1.187)"/>
                    <path id="Path_43928" data-name="Path 43928" class="cls-3" d="M208.75 17.33V.536L212.077 0v5.628a6.863 6.863 0 0 1 .86-.212 5.37 5.37 0 0 1 1.016-.1 6.288 6.288 0 0 1 2.379.391 3.7 3.7 0 0 1 1.518 1.1 4.277 4.277 0 0 1 .8 1.7 9.394 9.394 0 0 1 .235 2.188v6.635h-3.327V11.1a4.591 4.591 0 0 0-.413-2.278 1.652 1.652 0 0 0-1.53-.67 4.276 4.276 0 0 0-.837.078c-.26.053-.5.108-.7.167v8.933z" transform="translate(-74.889)"/>
                </g>
            </g>
        </g>
    </g>
</svg>
