<svg viewBox="0 0 32 32" xmlns="http://www.w3.org/2000/svg" fit="" height="100%" width="100%" preserveAspectRatio="xMidYMid meet" focusable="false"><path d="M22.626 18.074c2.33-2.142 3.589-4.923 3.527-7.789C26.153 4.616 21.6 0 16 0S5.847 4.612 5.847 10.285c-.062 2.866 1.196 5.647 3.526 7.789C3.695 20.525 0 25.914 0 32h2.443c0-5.676 3.593-10.637 9.002-12.523 2.775 1.46 6.335 1.46 9.11 0 5.409 1.887 9.002 6.845 9.002 12.523H32c0-6.091-3.697-11.475-9.374-13.926zM16 18.999c-4.136 0-7.5-3.811-7.5-8.5C8.5 5.811 11.864 2 16 2s7.5 3.811 7.5 8.5c0 4.688-3.366 8.5-7.5 8.5v-.001z" fill="#333" fill-rule="evenodd"></path></svg>