<svg xmlns="http://www.w3.org/2000/svg" viewBox="0 0 30 32" fit="" height="100%" width="100%" preserveAspectRatio="xMidYMid meet" focusable="false"><path d="M10 13.51H4.08v6H10v-6zm-2 3.9H6v-1.95h2v1.95zm10-3.9h-6v6h6v-6zm-2 3.9h-2v-1.95h2v1.95zm10-3.9h-6v6h6v-6zm-2 3.9h-2v-1.95h2v1.95zm2 4h-6v5.94h6v-5.94zm-2 4h-2v-1.95h2v1.95zm-6-4h-6v5.94h6v-5.94zm-2 4h-2v-1.95h2v1.95zm-5.94-4H4.08v5.94H10l.06-5.94zm-2.06 4H6v-1.95h2v1.95zM28.08 2.16H21.7V0h-1.94v2.16h-9.52V0H8.3v2.16H1.92A1.71 1.71 0 00.19 3.89v26.38A1.71 1.71 0 001.92 32h26.16a1.71 1.71 0 001.73-1.73V3.89a1.71 1.71 0 00-1.73-1.73zm0 26.81A1.08 1.08 0 0127 30.05H3A1.08 1.08 0 011.92 29V10.16h26.16v18.81zm0-20.75H1.92v-3A1.08 1.08 0 013 4.11h5.3v1.51h1.94V4.11h9.52v1.51h1.94V4.11H27c.596 0 1.08.484 1.08 1.08v3.03z"></path></svg>