<svg viewBox="0 0 32 32" xmlns="http://www.w3.org/2000/svg" fit="" height="100%" width="100%" preserveAspectRatio="xMidYMid meet" focusable="false"><path d="M30 30v2h-2v-2H4v2H2v-2H0v-8h.444L4 6V2a2 2 0 012-2h20a2 2 0 012 2v4l3.556 16H32v8h-2zM26 3a1 1 0 00-1-1H7a1 1 0 00-1 1v2a1 1 0 001 1h3V5a1 1 0 011-1h10a1 1 0 011 1v1h3a1 1 0 001-1V3zM12 6v2h8V6h-8zm14 2h-4v1a1 1 0 01-1 1H11a1 1 0 01-1-1V8H6l-1.714 6h23.429L26 8zM3.714 16L2 22h28l-1.714-6H3.714zM30 24H2v4h28v-4z" fill="#333" fill-rule="evenodd"></path></svg>